<?xml version="1.0" encoding="utf-8"?>
<!-- Generator: Adobe Illustrator 22.1.0, SVG Export Plug-In . SVG Version: 6.00 Build 0)  -->
<svg version="1.1" id="Layer_1" xmlns="http://www.w3.org/2000/svg" xmlns:xlink="http://www.w3.org/1999/xlink" x="0px" y="0px"
	 viewBox="0 0 2880 1800" style="enable-background:new 0 0 2880 1800;" xml:space="preserve">
<style type="text/css">
	.st0{clip-path:url(#SVGID_2_);}
	.st1{fill:url(#SVGID_3_);}
	.st2{opacity:0.25;}
	.st3{fill:#FFFFFF;}
	.st4{opacity:0.1;}
	.st5{opacity:0.3;clip-path:url(#SVGID_2_);fill:#666666;}
	.st6{opacity:0.2;clip-path:url(#SVGID_2_);fill:#666666;}
	.st7{opacity:0.45;clip-path:url(#SVGID_2_);}
	.st8{fill:#F2F2F2;}
	.st9{fill:url(#SVGID_4_);}
	.st10{opacity:0.14;clip-path:url(#SVGID_2_);}
	.st11{fill:url(#SVGID_5_);}
	.st12{opacity:0.1;clip-path:url(#SVGID_2_);}
	.st13{fill:url(#SVGID_6_);}
	.st14{opacity:0.75;clip-path:url(#SVGID_2_);}
	.st15{fill:url(#SVGID_7_);}
	.st16{opacity:0.25;clip-path:url(#SVGID_2_);}
	.st17{fill:url(#SVGID_8_);}
	.st18{fill:url(#SVGID_9_);}
	.st19{opacity:0.3;}
	.st20{fill:#E74C3C;}
	.st21{opacity:0.15;}
	.st22{opacity:0.75;}
	.st23{fill:#E09563;}
	.st24{fill:#C0392B;}
	.st25{opacity:0.55;clip-path:url(#SVGID_2_);}
	
		.st26{opacity:0.45;fill:#E67E22;stroke:#C0392B;stroke-width:49.1084;stroke-linecap:round;stroke-linejoin:round;stroke-miterlimit:10;}
	.st27{opacity:0.25;stroke:#C0392B;stroke-width:93.0475;stroke-linecap:round;stroke-linejoin:round;stroke-miterlimit:10;}
	.st28{fill:#E67E22;stroke:#FCEE21;stroke-width:9.3047;stroke-linecap:round;stroke-linejoin:round;stroke-miterlimit:10;}
	.st29{fill:none;stroke:#F0CB40;stroke-width:11.8894;stroke-linecap:round;stroke-linejoin:round;stroke-miterlimit:10;}
	.st30{fill:none;stroke:#F2D249;stroke-width:23.2619;stroke-linecap:round;stroke-miterlimit:10;}
	.st31{fill:#E67E22;stroke:#E67E22;stroke-width:29.465;stroke-linecap:round;stroke-linejoin:round;stroke-miterlimit:10;}
	.st32{display:none;}
	.st33{display:inline;}
	.st34{fill:#2C3E50;}
	.st35{fill:#CCCCCC;}
	.st36{fill:#999999;}
	.st37{fill:#307889;}
	.st38{fill:#44838E;}
	.st39{fill:#3CA1BC;}
	.st40{opacity:0.65;}
	.st41{opacity:0.75;fill:#D1D3D4;}
	.st42{fill:#B3B3B3;}
</style>
<g>
	<defs>
		<rect id="SVGID_1_" x="-0.5" y="0.5" width="2880" height="1799"/>
	</defs>
	<clipPath id="SVGID_2_">
		<use xlink:href="#SVGID_1_"  style="overflow:visible;"/>
	</clipPath>
	<g class="st0">
		<linearGradient id="SVGID_3_" gradientUnits="userSpaceOnUse" x1="1439.9998" y1="1799.209" x2="1439.9998" y2="0.7905">
			<stop  offset="0" style="stop-color:#D94738"/>
			<stop  offset="1.132154e-02" style="stop-color:#D14739"/>
			<stop  offset="7.346487e-02" style="stop-color:#AA453E"/>
			<stop  offset="0.1422" style="stop-color:#884343"/>
			<stop  offset="0.2171" style="stop-color:#6B4147"/>
			<stop  offset="0.3002" style="stop-color:#54404A"/>
			<stop  offset="0.3949" style="stop-color:#423F4D"/>
			<stop  offset="0.5084" style="stop-color:#353E4F"/>
			<stop  offset="0.6593" style="stop-color:#2E3E50"/>
			<stop  offset="1" style="stop-color:#2C3E50"/>
		</linearGradient>
		<rect x="0.8" y="0.8" class="st1" width="2878.4" height="1798.4"/>
		<path d="M2878.4,1.6v1796.8H1.6V1.6H2878.4 M2880,0H0v1800h2880V0L2880,0z"/>
	</g>
	<g class="st0">
		<g class="st2">
			<circle class="st3" cx="2396.6" cy="923.7" r="16"/>
		</g>
		<g class="st2">
			<circle class="st3" cx="2605.4" cy="1366.1" r="19.2"/>
		</g>
		<g class="st4">
			<circle class="st3" cx="1928.5" cy="1440.5" r="16"/>
		</g>
		<g class="st2">
			<circle class="st3" cx="2683.7" cy="-196.8" r="16"/>
		</g>
		<g class="st2">
			<circle class="st3" cx="2211.4" cy="657.9" r="16"/>
		</g>
		<g class="st2">
			<circle class="st3" cx="3153.8" cy="48.3" r="16"/>
		</g>
		<g class="st2">
			<circle class="st3" cx="2646" cy="1786.2" r="16"/>
		</g>
		<g class="st2">
			<circle class="st3" cx="2351" cy="1649.2" r="16"/>
		</g>
	</g>
	<path class="st5" d="M3450,1053.3c0-15.9-6.5-30.4-17-40.9c-10.5-10.5-25-17-40.9-17h-721.5c-31.3,0-57.6,24.4-58.8,55.7
		c-0.6,16.8,6,32.2,17,43.2c4.5,4.5,9.6,8.2,15.3,11c0,0,0,0,0,0h119c9.7,0,19,2.1,27.3,6c0,0,0,0,0,0h0.2c0,0-0.1,0.1,0,0.1
		c22.4,10.4,38,33.2,38,59.4v17c0,36-29.5,65.5-65.5,65.5h-335.2c-40.7,0-73.9,33.3-73.9,73.9c0,20.3,8.3,38.8,21.7,52.2
		c13.4,13.4,31.9,21.7,52.2,21.7h690.4c40.7,0,73.9-33.3,73.9-73.9s-33.3-73.9-73.9-73.9h-21.5c-36,0-65.5-29.5-65.5-65.5v-17
		c0-26.2,15.6-48.9,38-59.4c0.1,0,0-0.1,0-0.1h0.2c0,0,0,0,0,0c8.3-3.8,17.5-6,27.3-6h320.8c0,0,0,0,0,0
		C3436.8,1095.7,3450,1076,3450,1053.3z"/>
	<g class="st0">
		<g class="st2">
			<circle class="st3" cx="483.6" cy="1028.7" r="16"/>
		</g>
		<g class="st2">
			<circle class="st3" cx="692.4" cy="1471.1" r="19.2"/>
		</g>
		<g class="st4">
			<circle class="st3" cx="15.5" cy="1545.5" r="16"/>
		</g>
		<g class="st2">
			<circle class="st3" cx="770.7" cy="-91.8" r="16"/>
		</g>
		<g class="st2">
			<circle class="st3" cx="298.4" cy="762.9" r="16"/>
		</g>
		<g class="st2">
			<circle class="st3" cx="1240.8" cy="153.3" r="16"/>
		</g>
		<g class="st2">
			<circle class="st3" cx="733" cy="1891.2" r="16"/>
		</g>
		<g class="st2">
			<circle class="st3" cx="438" cy="1754.2" r="16"/>
		</g>
	</g>
	<path class="st6" d="M1628,1700.8c0-12.8,5.2-24.4,13.7-32.8c8.4-8.4,20-13.7,32.8-13.7h578.6c25.1,0,46.2,19.6,47.2,44.6
		c0.5,13.5-4.8,25.8-13.6,34.7c-3.6,3.6-7.7,6.6-12.3,8.8c0,0,0,0,0,0h-95.4c-7.8,0-15.2,1.7-21.9,4.8c0,0,0,0,0,0h-0.2
		c0,0,0.1,0,0,0.1c-17.9,8.4-30.5,26.6-30.5,47.6v13.6c0,28.9,23.6,52.5,52.5,52.5h268.8c32.6,0,59.3,26.7,59.3,59.3
		c0,16.3-6.7,31.1-17.4,41.9c-10.7,10.8-25.6,17.4-41.9,17.4H1894c-32.6,0-59.3-26.7-59.3-59.3s26.7-59.3,59.3-59.3h17.2
		c28.9,0,52.5-23.6,52.5-52.5V1795c0-21-12.5-39.3-30.5-47.6c0,0,0-0.1,0-0.1h-0.2c0,0,0,0,0,0c-6.7-3.1-14.1-4.8-21.9-4.8H1654
		c0,0,0,0,0,0C1638.6,1734.9,1628,1719,1628,1700.8z"/>
	<g class="st0">
		<g class="st2">
			<circle class="st3" cx="-143.9" cy="-3.6" r="16"/>
		</g>
		<g class="st2">
			<circle class="st3" cx="338.4" cy="78.2" r="19.2"/>
		</g>
		<g class="st4">
			<circle class="st3" cx="12.3" cy="676" r="16"/>
		</g>
		<g class="st2">
			<circle class="st3" cx="-898.8" cy="-879.9" r="16"/>
		</g>
		<g class="st2">
			<circle class="st3" cx="-467.9" cy="-3.7" r="16"/>
		</g>
		<g class="st2">
			<circle class="st3" cx="-428.9" cy="-1125.3" r="16"/>
		</g>
		<g class="st2">
			<circle class="st3" cx="706.2" cy="285.1" r="16"/>
		</g>
		<g class="st2">
			<circle class="st3" cx="425.1" cy="448.7" r="16"/>
		</g>
	</g>
	<g class="st7">
		<circle class="st8" cx="1901" cy="1389" r="32"/>
		<linearGradient id="SVGID_4_" gradientUnits="userSpaceOnUse" x1="1901" y1="1410" x2="1901" y2="1368">
			<stop  offset="0" style="stop-color:#8E44AD"/>
			<stop  offset="1.635170e-02" style="stop-color:#8844A7"/>
			<stop  offset="0.101" style="stop-color:#6B428C"/>
			<stop  offset="0.1963" style="stop-color:#544076"/>
			<stop  offset="0.3051" style="stop-color:#423F65"/>
			<stop  offset="0.4354" style="stop-color:#353F59"/>
			<stop  offset="0.6087" style="stop-color:#2E3E52"/>
			<stop  offset="1" style="stop-color:#2C3E50"/>
		</linearGradient>
		<circle class="st9" cx="1901" cy="1389" r="21"/>
	</g>
	<g class="st10">
		<circle class="st8" cx="1278" cy="1010" r="32"/>
		<linearGradient id="SVGID_5_" gradientUnits="userSpaceOnUse" x1="1278" y1="1031" x2="1278" y2="989">
			<stop  offset="0" style="stop-color:#8E44AD"/>
			<stop  offset="1.635170e-02" style="stop-color:#8844A7"/>
			<stop  offset="0.101" style="stop-color:#6B428C"/>
			<stop  offset="0.1963" style="stop-color:#544076"/>
			<stop  offset="0.3051" style="stop-color:#423F65"/>
			<stop  offset="0.4354" style="stop-color:#353F59"/>
			<stop  offset="0.6087" style="stop-color:#2E3E52"/>
			<stop  offset="1" style="stop-color:#2C3E50"/>
		</linearGradient>
		<circle class="st11" cx="1278" cy="1010" r="21"/>
	</g>
	<g class="st12">
		<circle class="st8" cx="994" cy="1785" r="32"/>
		<linearGradient id="SVGID_6_" gradientUnits="userSpaceOnUse" x1="994" y1="1806" x2="994" y2="1764">
			<stop  offset="0" style="stop-color:#8E44AD"/>
			<stop  offset="1.635170e-02" style="stop-color:#8844A7"/>
			<stop  offset="0.101" style="stop-color:#6B428C"/>
			<stop  offset="0.1963" style="stop-color:#544076"/>
			<stop  offset="0.3051" style="stop-color:#423F65"/>
			<stop  offset="0.4354" style="stop-color:#353F59"/>
			<stop  offset="0.6087" style="stop-color:#2E3E52"/>
			<stop  offset="1" style="stop-color:#2C3E50"/>
		</linearGradient>
		<circle class="st13" cx="994" cy="1785" r="21"/>
	</g>
	<g class="st14">
		<circle class="st8" cx="1716" cy="499" r="32"/>
		<linearGradient id="SVGID_7_" gradientUnits="userSpaceOnUse" x1="1716" y1="520" x2="1716" y2="478">
			<stop  offset="0" style="stop-color:#8E44AD"/>
			<stop  offset="1.635170e-02" style="stop-color:#8844A7"/>
			<stop  offset="0.101" style="stop-color:#6B428C"/>
			<stop  offset="0.1963" style="stop-color:#544076"/>
			<stop  offset="0.3051" style="stop-color:#423F65"/>
			<stop  offset="0.4354" style="stop-color:#353F59"/>
			<stop  offset="0.6087" style="stop-color:#2E3E52"/>
			<stop  offset="1" style="stop-color:#2C3E50"/>
		</linearGradient>
		<circle class="st15" cx="1716" cy="499" r="21"/>
	</g>
	<g class="st16">
		<circle class="st8" cx="1076" cy="83" r="32"/>
		<linearGradient id="SVGID_8_" gradientUnits="userSpaceOnUse" x1="1076" y1="104" x2="1076" y2="62">
			<stop  offset="0" style="stop-color:#8E44AD"/>
			<stop  offset="1.635170e-02" style="stop-color:#8844A7"/>
			<stop  offset="0.101" style="stop-color:#6B428C"/>
			<stop  offset="0.1963" style="stop-color:#544076"/>
			<stop  offset="0.3051" style="stop-color:#423F65"/>
			<stop  offset="0.4354" style="stop-color:#353F59"/>
			<stop  offset="0.6087" style="stop-color:#2E3E52"/>
			<stop  offset="1" style="stop-color:#2C3E50"/>
		</linearGradient>
		<circle class="st17" cx="1076" cy="83" r="21"/>
	</g>
	<g class="st7">
		<circle class="st8" cx="1916" cy="162" r="32"/>
		<linearGradient id="SVGID_9_" gradientUnits="userSpaceOnUse" x1="1916" y1="183" x2="1916" y2="141">
			<stop  offset="0" style="stop-color:#8E44AD"/>
			<stop  offset="1.635170e-02" style="stop-color:#8844A7"/>
			<stop  offset="0.101" style="stop-color:#6B428C"/>
			<stop  offset="0.1963" style="stop-color:#544076"/>
			<stop  offset="0.3051" style="stop-color:#423F65"/>
			<stop  offset="0.4354" style="stop-color:#353F59"/>
			<stop  offset="0.6087" style="stop-color:#2E3E52"/>
			<stop  offset="1" style="stop-color:#2C3E50"/>
		</linearGradient>
		<circle class="st18" cx="1916" cy="162" r="21"/>
	</g>
	<g class="st16">
		<circle class="st3" cx="1183" cy="711" r="15"/>
	</g>
	<g class="st16">
		<circle class="st3" cx="1668.5" cy="545.5" r="7.5"/>
	</g>
	<g class="st16">
		<circle class="st3" cx="1278" cy="1127" r="15"/>
	</g>
	<g class="st16">
		<circle class="st3" cx="1610" cy="1445" r="18"/>
	</g>
	<g class="st12">
		<circle class="st3" cx="1041" cy="1738" r="15"/>
	</g>
	<g class="st16">
		<circle class="st3" cx="1153" cy="47" r="15"/>
	</g>
	<g class="st16">
		<circle class="st3" cx="1026" cy="956" r="15"/>
	</g>
	<g class="st16">
		<circle class="st3" cx="1648" cy="104" r="15"/>
	</g>
	<g class="st16">
		<circle class="st3" cx="1787" cy="1800" r="15"/>
	</g>
	<g class="st16">
		<circle class="st3" cx="1482" cy="1779" r="15"/>
	</g>
	<g class="st0">
		<g class="st19">
			<circle class="st20" cx="1278" cy="433" r="242"/>
		</g>
		<g class="st21">
			<circle class="st20" cx="1278" cy="433" r="181.2"/>
		</g>
		<g class="st2">
			<circle class="st20" cx="1278" cy="433" r="156.2"/>
		</g>
		<g class="st22">
			<g>
				<circle class="st23" cx="1278" cy="433" r="119.1"/>
			</g>
			<g>
				<circle class="st24" cx="1328.5" cy="439.4" r="11"/>
			</g>
			<g>
				<circle class="st24" cx="1282.6" cy="362.7" r="33.1"/>
			</g>
			<g>
				<circle class="st24" cx="1298.6" cy="494.8" r="29.9"/>
			</g>
			<g>
				<circle class="st24" cx="1249.5" cy="433" r="15.7"/>
			</g>
			<g>
				<circle class="st24" cx="1203.7" cy="411.5" r="15.7"/>
			</g>
		</g>
	</g>
	<g class="st25">
		<g class="st19">
			<circle class="st20" cx="1735" cy="1198" r="205"/>
		</g>
		<g class="st21">
			<circle class="st20" cx="1735" cy="1198" r="181.2"/>
		</g>
		<g class="st2">
			<circle class="st20" cx="1735" cy="1198" r="156.2"/>
		</g>
		<g class="st22">
			<g>
				<circle class="st23" cx="1735" cy="1198" r="119.1"/>
			</g>
			<g>
				<circle class="st24" cx="1785.5" cy="1204.4" r="11"/>
			</g>
			<g>
				<circle class="st24" cx="1739.6" cy="1127.7" r="33.1"/>
			</g>
			<g>
				<circle class="st24" cx="1755.6" cy="1259.8" r="29.9"/>
			</g>
			<g>
				<circle class="st24" cx="1706.5" cy="1198" r="15.7"/>
			</g>
			<g>
				<circle class="st24" cx="1660.7" cy="1176.5" r="15.7"/>
			</g>
		</g>
	</g>
	<g class="st25">
		<g class="st19">
			<circle class="st20" cx="2688.5" cy="362.5" r="432.5"/>
		</g>
		<g class="st21">
			<circle class="st20" cx="2688.5" cy="362.5" r="382.3"/>
		</g>
		<g class="st2">
			<circle class="st20" cx="2688.5" cy="362.5" r="329.6"/>
		</g>
		<g class="st22">
			<g>
				<circle class="st23" cx="2688.5" cy="362.5" r="251.2"/>
			</g>
			<g>
				<circle class="st24" cx="2795.1" cy="376" r="23.3"/>
			</g>
			<g>
				<circle class="st24" cx="2698.3" cy="214.2" r="69.8"/>
			</g>
			<g>
				<circle class="st24" cx="2732" cy="493" r="63.1"/>
			</g>
			<g>
				<circle class="st24" cx="2531.7" cy="317.2" r="33.1"/>
			</g>
		</g>
	</g>
	<g class="st0">
		<g>
			<line class="st26" x1="1297.5" y1="1431" x2="1297.5" y2="2075.1"/>
			<line class="st27" x1="1297.5" y1="1513.4" x2="1297.5" y2="2157.5"/>
		</g>
		<line class="st28" x1="1240.2" y1="1558.1" x2="1240.2" y2="1697.2"/>
		<line class="st29" x1="1354.7" y1="1489.6" x2="1354.7" y2="1591.5"/>
		<line class="st30" x1="1278.7" y1="1440" x2="1278.7" y2="1737.3"/>
		<line class="st30" x1="1310.2" y1="1440" x2="1310.2" y2="1737.3"/>
		<line class="st31" x1="1292.2" y1="1484.5" x2="1292.2" y2="1781.7"/>
		<g class="st32">
			<g class="st33">
				<path class="st34" d="M1260.7,1651.8l-39.7,50.4c-29.9,37.9-2.9,93.6,45.4,93.6h79.5c48.3,0,75.3-55.7,45.4-93.6l-39.7-50.4
					C1328.3,1622.4,1283.9,1622.4,1260.7,1651.8z"/>
			</g>
			<g class="st33">
				<path class="st35" d="M1246.3,1772L1246.3,1772c-3.6,0-6.5-2.9-6.5-6.5v-72c0-3.6,2.9-6.5,6.5-6.5l0,0c3.6,0,6.5,2.9,6.5,6.5v72
					C1252.8,1769.1,1249.9,1772,1246.3,1772z"/>
				<path class="st35" d="M1276.3,1772L1276.3,1772c-3.6,0-6.5-2.9-6.5-6.5v-72c0-3.6,2.9-6.5,6.5-6.5l0,0c3.6,0,6.5,2.9,6.5,6.5v72
					C1282.8,1769.1,1279.9,1772,1276.3,1772z"/>
				<path class="st35" d="M1306.3,1772L1306.3,1772c-3.6,0-6.5-2.9-6.5-6.5v-72c0-3.6,2.9-6.5,6.5-6.5l0,0c3.6,0,6.5,2.9,6.5,6.5v72
					C1312.8,1769.1,1309.9,1772,1306.3,1772z"/>
				<path class="st35" d="M1336.3,1772L1336.3,1772c-3.6,0-6.5-2.9-6.5-6.5v-72c0-3.6,2.9-6.5,6.5-6.5l0,0c3.6,0,6.5,2.9,6.5,6.5v72
					C1342.8,1769.1,1339.9,1772,1336.3,1772z"/>
				<path class="st35" d="M1366.3,1772L1366.3,1772c-3.6,0-6.5-2.9-6.5-6.5v-72c0-3.6,2.9-6.5,6.5-6.5l0,0c3.6,0,6.5,2.9,6.5,6.5v72
					C1372.8,1769.1,1369.9,1772,1366.3,1772z"/>
			</g>
		</g>
		<g>
			<path class="st36" d="M1135.3,1502.5h-0.5c-6.6,0-12-5.4-12-12v-46.7c0-6.6,5.4-12,12-12h0.5c6.6,0,12,5.4,12,12v46.7
				C1147.2,1497.1,1141.9,1502.5,1135.3,1502.5z"/>
			<path class="st36" d="M1457.7,1502.7h-0.5c-6.6,0-12-5.4-12-12V1444c0-6.6,5.4-12,12-12h0.5c6.6,0,12,5.4,12,12v46.7
				C1469.7,1497.3,1464.3,1502.7,1457.7,1502.7z"/>
			<g>
				<g>
					<path class="st37" d="M1209,1378.6l-81.9,100.1c-10.8,13.2-1.4,32.9,15.6,32.9h142.6c26.4,0,41-30.7,24.2-51.1l-67-81.9
						C1233.9,1368,1217.7,1368,1209,1378.6z"/>
					<path class="st37" d="M1364.7,1379.7l-81.9,100.1c-10.8,13.2-1.4,32.9,15.6,32.9H1441c26.4,0,41-30.7,24.2-51.1l-67-81.9
						C1389.6,1369.1,1373.3,1369.1,1364.7,1379.7z"/>
					<g>
						<path class="st38" d="M1379.8,1484.7h-153.6c-18.2,0-33.1-14.9-33.1-33.1V1298c0-18.2,14.9-33.1,33.1-33.1h153.6
							c18.2,0,33.1,14.9,33.1,33.1v153.6C1412.9,1469.8,1398,1484.7,1379.8,1484.7z"/>
						<g>
							<path class="st39" d="M1355.3,1512.4h-104.7c-17.1,0-30.9-13.8-30.9-30.9v-187.4c0-46,37.3-83.2,83.2-83.2h0
								c46,0,83.2,37.3,83.2,83.2v187.4C1386.2,1498.6,1372.4,1512.4,1355.3,1512.4z"/>
							<g class="st40">
								<path class="st35" d="M1367.2,1277.4L1367.2,1277.4c-4.8,0.9-9.9-2.9-12.4-7.9c-12.9-20.3-27.9-29.9-51.8-33.3
									c-5.5-0.2-11.1-3.3-12.3-8l0,0c-1.2-4.7,3.9-9.5,11.3-9.2c31.1,3.6,52.7,17.5,68.9,44.3
									C1374.2,1269.9,1371.9,1276.5,1367.2,1277.4z"/>
							</g>
							<g>
								<g>
									<path class="st34" d="M1305,1425.2h-4.1c-28.6,0-52-23.4-52-52v-66.9c0-29.7,24.3-54,54-54h0c29.7,0,54,24.3,54,54v66.9
										C1357,1401.8,1333.6,1425.2,1305,1425.2z"/>
								</g>
								<circle class="st41" cx="1314.5" cy="1291.2" r="11.5"/>
								<circle class="st41" cx="1288.6" cy="1318.6" r="5.8"/>
							</g>
						</g>
					</g>
				</g>
				<g>
					<path class="st42" d="M1218.8,1553.4L1218.8,1553.4c-15.8,0-28.6-12.8-28.6-28.6v-69.3c0-15.8,12.8-28.6,28.6-28.6l0,0
						c15.8,0,28.6,12.8,28.6,28.6v69.3C1247.4,1540.6,1234.6,1553.4,1218.8,1553.4z"/>
					<g class="st40">
						<path class="st35" d="M1240.9,1454.7L1240.9,1454.7c-1.6,0.4-3.4-1.2-4.3-3.3c-4-9.8-8.9-13.6-17.8-14
							c-1.9-0.1-3.8-1.4-4.2-3.3l0,0c-0.4-2,1.3-4,3.9-3.9c12.2,0.4,18,9.6,23.7,18.6C1243.3,1451.5,1242.5,1454.3,1240.9,1454.7z"
							/>
					</g>
				</g>
				<g>
					<path class="st42" d="M1380.2,1553.4L1380.2,1553.4c-15.8,0-28.6-12.8-28.6-28.6v-69.3c0-15.8,12.8-28.6,28.6-28.6l0,0
						c15.8,0,28.6,12.8,28.6,28.6v69.3C1408.8,1540.6,1396,1553.4,1380.2,1553.4z"/>
					<g class="st40">
						<path class="st35" d="M1402.3,1454.7L1402.3,1454.7c-1.6,0.4-3.4-1.2-4.3-3.3c-4-9.8-8.9-13.6-17.8-14
							c-1.9-0.1-3.8-1.4-4.2-3.3l0,0c-0.4-2,1.3-4,3.9-3.9c12.2,0.4,18,9.6,23.7,18.6C1404.7,1451.5,1403.9,1454.3,1402.3,1454.7z"
							/>
					</g>
				</g>
			</g>
		</g>
	</g>
	<path class="st5" d="M-377,709.1c0,12.4,5.1,23.6,13.2,31.7c8.1,8.2,19.4,13.2,31.7,13.2h559.5c24.3,0,44.7-18.9,45.6-43.2
		c0.5-13.1-4.6-25-13.2-33.5c-3.5-3.5-7.5-6.4-11.9-8.6c0,0,0,0,0,0h-92.3c-7.5,0-14.7-1.7-21.1-4.6c0,0,0,0,0,0h-0.1
		c0,0,0.1,0,0-0.1c-17.4-8.1-29.5-25.7-29.5-46v-13.2c0-27.9,22.8-50.8,50.8-50.8h260c31.5,0,57.3-25.8,57.3-57.3
		c0-15.8-6.4-30.1-16.8-40.5c-10.4-10.4-24.7-16.8-40.5-16.8h-535.4c-31.5,0-57.3,25.8-57.3,57.3s25.8,57.3,57.3,57.3h16.7
		c27.9,0,50.8,22.8,50.8,50.8V618c0,20.3-12.1,38-29.5,46c0,0,0,0.1,0,0.1h-0.1c0,0,0,0,0,0c-6.4,3-13.6,4.6-21.1,4.6h-248.8
		c0,0,0,0,0,0C-366.7,676.1-377,691.5-377,709.1z"/>
	<path class="st5" d="M2627,626c0,15.9-6.5,30.4-17,41c-10.5,10.5-25,17-41,17h-722.1c-31.3,0-57.6-24.4-58.9-55.7
		c-0.6-16.9,6-32.2,17-43.2c4.5-4.5,9.6-8.2,15.3-11c0,0,0,0,0,0h119.1c9.7,0,19-2.2,27.3-6c0,0,0,0,0,0h0.2c0,0-0.1-0.1,0-0.1
		c22.4-10.4,38-33.2,38-59.4v-17c0-36-29.5-65.5-65.5-65.5H1604c-40.7,0-74-33.3-74-74c0-20.4,8.3-38.9,21.7-52.3
		c13.4-13.4,31.9-21.7,52.3-21.7h691c40.7,0,74,33.3,74,74s-33.3,74-74,74h-21.5c-36,0-65.5,29.5-65.5,65.5v17
		c0,26.2,15.6,49,38,59.4c0.1,0,0,0.1,0,0.1h0.2c0,0,0,0,0,0c8.3,3.8,17.6,6,27.3,6h321.1c0,0,0,0,0,0
		C2613.8,583.5,2627,603.3,2627,626z"/>
	<g class="st0">
		<g class="st19">
			<circle class="st20" cx="168" cy="1389" r="317"/>
		</g>
		<g class="st21">
			<circle class="st20" cx="168" cy="1389" r="237.3"/>
		</g>
		<g class="st2">
			<circle class="st20" cx="168" cy="1389" r="204.6"/>
		</g>
		<g class="st22">
			<g>
				<circle class="st23" cx="168" cy="1389" r="155.9"/>
			</g>
			<g>
				<circle class="st24" cx="174.1" cy="1297" r="43.4"/>
			</g>
			<g>
				<circle class="st24" cx="130.7" cy="1389" r="20.5"/>
			</g>
			<g>
				<circle class="st24" cx="70.6" cy="1360.9" r="20.5"/>
			</g>
		</g>
	</g>
</g>
</svg>
